<svg xmlns="http://www.w3.org/2000/svg" width="44.676" height="40.511" viewBox="0 0 365 330.969">
  <defs>
    <style>
      .cls-1 {
        fill: #fff;
        fill-rule: evenodd;
      }
    </style>
  </defs>
  <path id="battle_1" data-name="battle 1" class="cls-1" d="M3078.88,166.391c11.28,1.764,9.32,9.293,6.52,13.024-1.89,2.46-5.21,4.256-6.52,5.427,14.88,7.385,29.78,22.342,49.97,44.5,3.75,3.347,9.93,5.1,14.13,8.683,6.3-9.184,22.57-18.681,15.2-37.987-2.38-6.253-7.71-7.713-8.69-16.281a23.425,23.425,0,0,1,7.61-1.085c5.74,4.616,12.48,7.65,16.29,14.11,14.04,23.8-7.13,40.278-15.21,52.1,6.43,5.615,29.51,30.236,43.46,45.585-8.21,7.959-25.29,23.52-29.33,27.134-21.09-20.85-33.41-31.3-44.54-44.5-6.97,10.937-30.74,22.919-48.89,15.195-18.76-8.061-16.53-23.871-16.29-24.963,1.94-2.186,3.05-2.331,5.43-1.086,12.15,18.921,40.49,10.466,49.97-4.341-4.44-3.206-5.35-9.932-9.78-13.024-19.45-13.608-33.48-27.788-45.62-48.841-1.91,2.242-7.98,7.3-9.78,7.6s-7.98,2.363-8.76-8.961c-0.65-9.346-2.22-22.017,5.5-29.026S3058.04,165.4,3078.88,166.391Zm270.49-1.086c10.5-.214,18.1-1.313,26.08,4.342s5.43,18.9,5.43,26.048-3.98,14.913-11.95,10.854c-2.47-2.685-2.67-2.675-4.35-6.512h-2.17c-13.68,23.793-23.66,34.539-48.38,53.082a21.248,21.248,0,0,0-4.85,12.039c8.19,5.612,18.22,17.036,34.76,10.854,6.51-2.433,9.75-8.356,17.38-9.769a31.309,31.309,0,0,1,1.09,9.769c-5.4,5.882-8.24,12.976-16.29,16.28-19.06,7.82-40.51-3.866-47.8-15.195-37.65,38.215-136.67,134.847-193.36,189.938-16.04,11.956-47.03,32.272-74.96,27.133,8.66-9.233,38.86-39.7,237.9-246.376-21.9-13.713-30.27-64.767,6.52-65.121a19.89,19.89,0,0,1,1.09,6.512c-15.43,11.224-10.54,45.846,9.77,47.756,2.56-2.5,5.51-2.192,8.69-4.342,13.09-20.482,33.61-39.388,52.15-48.841-2.72-1.523-5.47-4.069-6.94-4.745C3331.95,171.458,3340.71,165.332,3349.37,165.305ZM3128.85,267.329h5.44c10.13,10.518,25.9,23.986,39.1,39.073,4.23-4.145,7.06-7.411,13.04-13.025-5.58-5.357-23.55-23.5-40.19-37.987v-7.6c-6.22.152-8.34,1.957-13.04,3.256C3130.68,256.288,3128.88,258.92,3128.85,267.329Zm149.91-19.537v7.6c-23.2,22.362-119.71,121.074-217.26,222.5,12.48-1.355,34.05-18.428,48.89-32.561,156.83-153.5,182.88-179.195,182.5-179.084,1.28-.378,3.73.079,5.43,0-0.36-3.617-.73-7.236-1.09-10.853C3291.25,251.389,3289.43,247.809,3278.76,247.792Zm-29.33,96.6c7.67,6.51,25.81,25.782,33.68,33.646,65.48,65.422,111.59,114.386,111.89,116.133-14.03,7.547-51.92-9.908-68.44-23.877-48.56-44.453-78.31-72.145-104.28-98.768C3230.65,363.173,3243.8,350.261,3249.43,344.389Zm3.26,19.537a129.08,129.08,0,0,0-10.86,10.853c5.25,5.121,50.5,49.57,81.47,78.146,21.93,18.593,28.86,20.89,43.46,26.048C3328.84,441.087,3287.88,397.981,3252.69,363.926Z" transform="translate(-3030 -165)"/>
</svg>
