<svg xmlns="http://www.w3.org/2000/svg" width="45.012" height="42.988" viewBox="0 0 310 296.062">
  <defs>
    <style>
      .cls-1 {
        fill: #fff;
        fill-rule: evenodd;
      }
    </style>
  </defs>
  <path id="Collect_1" data-name="Collect 1" class="cls-1" d="M1944.69,214.649c5.77,0.523,36.81,8.2,38.17,11.066,0,3.938-3.02,27.239-9.04,28.166s-13.76-11.806-18.08-16.095c-1.25,5.9-11.31,51.779-17.08,77.457h50.23c2.86,0,9.71-8.887,9.85-16.023,0.11-5.241-5.81-15.161-10.86-15.161h-31.13v-2.012q1.995-6.035,4.01-12.071h28.13c11.12,0,25.44,15.2,25.11,30.575-0.29,13.587-6.97,27.308-21.09,30.786-1.62,10.013-6.56,43.193-11.05,63.374-2.09,9.362-3.73,32.081-44.36,32.081-42.24,0-57.35.109-133.43,0.109-20.83,0-42.27,1.589-54.25-7.042-16.03-11.731-19.9-62.613-24.13-87.875-6.35-4.794-13.23-6.537-17.05-12.718-12.19-19.707,1.73-44.83,18.08-49.29h32.14c-0.48,2.133-.96,4.592-3.01,14.083-3.01,0-20.94.133-25.11,0-5.09,0-11.05,8-11.05,16.095s3.36,15.089,12.05,15.089c14.84,0.259,31.05.592,39.13,0.629-4.82-4.158.76-42.555,4.55-96.335-3.04.975-4.15,1.437-6.51,2.154-9.28,4.124-11.44-.5-14.06-9.053s0.7-11.222,11.05-13.078c-7.35-5.681-18.13-17.316-2.01-24.142,10.19-3.426,38.59-11.808,50.22-15.089,15.59-4.649,12.61,13.783,11.05,21.125,13.11-5.374,13.23-1.767,14.48,1.276a51.324,51.324,0,0,1,2.86,8.869c1.41,5.965-.52,7.364-2.27,7.961a79.721,79.721,0,0,1-12.06,3.018c2.98,3.983,37.59,46.308,48.22,59.35a2.827,2.827,0,0,0,1-1.006c5.12-7.476,8.85-29.293,11.05-39.231-7.43,2.051-20.59,9.783-24.11,6.036s4.43-28.273,8.04-30.178c5.16-3.281,30.09,7.188,38.17,8.047,4.07-12.785,9.31-28.664,13.06-40.237,0.74-3.8-6.37-5.709-4.11-18.571s14.76-16.714,24.2-15.631c11.9,1.365,19.08,7.326,19.08,22.131s-8.66,13.539-11.05,18.106Q1948.21,193.02,1944.69,214.649ZM1767.9,185.477c3.81,3.038,5.06,9.207,10.05,11.066,5.46-3.58,35.4-9.5,37.16-13.077V170.388C1797.63,175.946,1779.24,181.036,1767.9,185.477Zm151.68,22.131c6.74,1.6,9.25,2.344,16.07,4.024,2.21-12.06,4.8-25.5,7.03-38.226l-12.05-2.012C1927.17,182.824,1923.45,193.993,1919.58,207.608Zm-139.62,90.534c60.04-17.006,90.63-28.6,90.4-28.166-21.62-26.147-42.64-50.231-53.24-63.374-10.37,3.018-19.75,6.036-30.13,9.053C1786.33,222.482,1780.58,290.115,1779.96,298.142Zm95.42,17.1h23.11q7.53-31.685,15.06-63.374c-7.76-8.226-10.21-11.146-16.07-18.107C1893.15,249.605,1884.43,278.867,1875.38,315.243Zm30.14,0h21.09c4.81-23.187,10.84-48.683,16.07-71.422-4.35,2.054-15.51,6.9-22.35,10.02C1917.55,266.55,1908.64,302.371,1905.52,315.243Zm-163.73,17.1q1.5,8.048,3.01,16.095h81.36c-1.48-4.159-2.12-7.02-4.01-16.095C1798,331.484,1768.84,332.266,1741.79,332.343Zm149.66,17.1c26.61-.09,58.03-0.528,82.37,0,0.42-3.929.59-6.042,2.01-18.107-26.95-.265-50.23.086-80.36,0C1894.31,337.507,1892.55,343.251,1891.45,349.444Zm-50.22-12.071c0.26,6.589,3.66,15.209,6.03,23.136h24.11c2.12-7.678,4.35-15.76,6.02-23.136h-36.16Z" transform="translate(-1704 -130.969)"/>
</svg>
