<svg xmlns="http://www.w3.org/2000/svg" width="84.707" height="45.004" viewBox="0 0 350.03 185.969">
  <defs>
    <style>
      .cls-1 {
        fill: #fff;
        fill-rule: evenodd;
      }
    </style>
  </defs>
  <path id="Craft_1" data-name="Craft 1" class="cls-1" d="M1137.56,207.428h73.25c8.33,0,22.6-1.958,26.55,2.74,2.96,3.864,1.83,13.449,1.83,20.093,0,17.774-.88,38.571-0.42,54.441-7.68,5.642-18.54,12.527-32.11,21.235-7.44,4.56-15.39,7.485-20.58,7.485-3.74,0-8.92-1.7-14.61-4.3-14.43-8.025-32.28-19.286-38.49-24.064V212.908C1132.98,211.016,1135.85,207.428,1137.56,207.428Zm-126.36,6.393c30.6,1.477,77.03-.014,113.54,0v22.833c0,16.133,0,32.271-.26,49.71-5.09.7-14.87,0.638-22.63,0.522-9.46-3.405-58.42-21.75-78.75-50.232C1018.73,230.829,1009.44,222.471,1011.2,213.821Zm235.32,3.653h41.2c3.09,0.984,6.66,4.539,10.07,5.48h55.86c4.05,0.194,6.77,4.878,7.32,20.093,0,9.921.58,31.026-4.58,33.792-13.04.124-29.88,0-44.86,0-6.41,0-13.29-.548-17.4,1.827-1.64.949-3.58,3.921-5.49,4.566h-42.12V217.474Zm-103.47.914v51.145l36.63,20.092h10.98c13.58-4.329,24.35-16.954,38.46-21.006V218.388h-86.07Zm-28.38,58.451c0-17.352,0-34.737-.01-52.643-28.68.585-59.21-.329-87.89-0.329C1041.01,240.829,1083.03,276.839,1114.67,276.839Zm141.92-49.318v45.665h27.47c2.96-1.185,5.6-5.368,9.15-6.393h55.86a148.493,148.493,0,0,0-.92-33.793H1292.3c-3.33-.921-6.36-4.537-9.16-5.479h-26.55Zm-108.96,83.11c10.19,4.908,22.44,16.226,38.04,16.292,15.72,0,25.07-10.08,37.96-17.2-3.96,15.253,1.83,30.139,1.83,30.139,8.81,21.126,20.39,29.051,45.78,33.792,5.7,0.986,7.76,13.528-.92,17.353-8.71,3.843-35.96.913-47.61,0.913h-80.57c-14.85,0-32.7,1.022-39.56-.206-13.19-2.09-11.22-19.024,2.01-19.886,6.27,0,6.2,1.345,13.74-1.827C1138.49,361.516,1153.57,339.422,1147.63,310.631Z" transform="translate(-1010.97 -207.031)"/>
</svg>
