<svg xmlns="http://www.w3.org/2000/svg" width="60.045" height="60.042" viewBox="0 0 933.82 933.786">
  <defs>
    <style>
      .cls-1 {
        fill: #fff;
        fill-rule: evenodd;
      }
    </style>
  </defs>
  <path id="BL_ComingSoon_Icon" class="cls-1" d="M4884.65,977.231L4771.56,1090.36a12.723,12.723,0,0,1-17.98,0L4640.49,977.231a12.7,12.7,0,0,1,0-17.978l113.09-113.125a12.716,12.716,0,0,1,17.98,0l113.09,113.125A12.721,12.721,0,0,1,4884.65,977.231Zm-382.53-8.564,139.05,139.093a12.711,12.711,0,0,1,0,17.97l-62.02,62.04a12.7,12.7,0,0,1-17.98,0l-139.05-139.09-139.43,139.47a12.7,12.7,0,0,1-17.98,0l-62.15-62.17a12.711,12.711,0,0,1,0-17.97l139.43-139.471L4202.96,829.47a12.722,12.722,0,0,1,0-17.979l62.02-62.038a12.714,12.714,0,0,1,17.98,0l139.03,139.069L4561.38,749.1a12.7,12.7,0,0,1,17.97,0l62.15,62.167a12.721,12.721,0,0,1,0,17.978Zm-71.05-217.194a12.7,12.7,0,0,1-17.97,0L4300.11,638.391a12.728,12.728,0,0,1,0-17.984L4413.1,507.325a12.7,12.7,0,0,1,17.97,0l112.99,113.082a12.71,12.71,0,0,1,0,17.984ZM4202.48,977.231l-113.1,113.129a12.711,12.711,0,0,1-17.97,0l-113.1-113.129a12.721,12.721,0,0,1,0-17.978l113.1-113.125a12.7,12.7,0,0,1,17.97,0l113.1,113.125A12.721,12.721,0,0,1,4202.48,977.231ZM4413.1,1189.49a12.693,12.693,0,0,1,17.97,0l112.99,113.08a12.7,12.7,0,0,1,0,17.98l-112.99,113.08a12.693,12.693,0,0,1-17.97,0l-112.99-113.08a12.723,12.723,0,0,1,0-17.98Z" transform="translate(-3954.59 -503.594)"/>
</svg>
