<svg xmlns="http://www.w3.org/2000/svg" width="60.031" height="60" viewBox="0 0 962.03 961.538">
  <defs>
    <style>
      .cls-1 {
        fill: #fff;
        fill-rule: evenodd;
      }
    </style>
  </defs>
  <path id="BL_Duelist_Icon" class="cls-1" d="M1524.62,599.377c10.74,0.471,25.46,10.321,37.8,13.24,14.15,3.35,32.04-9.006,39.68-3.783,7.37,2.5,7.99,9.616,11.34,16.078,3.69,7.124,9.14,14.481,12.28,21.751,3.47,8.028,4.74,16.059,9.45,22.7,8.98,12.647,25.43,17.17,38.74,25.534,22.82,14.345,44.44,28.86,60.47,50.124,7.23,9.591,17.19,16.735,20.79,30.263h-0.95c-2.41-2.2-5.76-2.748-8.5-4.729-4.45-3.224-7.78-8.974-12.28-12.294-30.24-22.293-60.76-41.456-102.99-52.015H1621c-26.74-6.066-55.91,1.794-77.48-9.457-5.05-2.632-12.91-4.1-15.12-9.458-8.18-8.8,5.41-28.155,1.89-43.5a148.973,148.973,0,0,0-8.5-25.534c-0.99-2.3-4.37-5.781-4.73-8.512C1516.31,603.986,1521.95,601.982,1524.62,599.377Zm942.03,0c6.4,0.218,13.21,3.606,12.29,10.4-0.37,2.737-3.72,6.207-4.73,8.512a150.727,150.727,0,0,0-8.5,25.534c-2.8,11.8,2.77,23.672,4.72,31.209,1.65,6.33-1.73,10.239-2.83,14.186-9.69,4.376-18.22,11.378-29.29,14.186-15.31,3.881-30.55-3.765-47.24,0-18.35,4.134-37.22,3.975-52.92,10.4-23.63,9.679-44.52,22.058-64.25,35.937-11.42,8.035-19.93,19.193-33.07,25.535V773.39c2.93-3.122,3.23-7.592,5.67-11.348,7.73-11.866,30.11-37.85,41.57-45.395,14.5-9.536,28.96-18.584,43.47-27.426,8.46-5.158,19.71-7.4,25.51-15.132,14.91-19.851,19.79-48.62,36.85-66.2,7.72-.258,12.38,1.811,18.9,3.782C2429.5,616.721,2459.07,606.692,2466.65,599.377ZM1831.7,691.112c3.54,0,7.35.362,9.45,1.892,9.61,3.3,18.37,19.393,26.46,25.534,3.28,2.494,11.58,6.783,13.23,10.4v15.132c-3.79,6.1-.8,32.987-2.84,42.558-2.08,9.769-2.78,22.375-2.83,33.1v18.915c-0.77,3.583-3.58,20.816-2.84,23.643,1.72,6.533,12.48,16.572,16.07,23.643h1.89c0.44-7.11,2.55-12.2,2.83-19.86,1.73-1.216,1.62-1.861,3.78-2.838v0.946c13.78,9.643,14.77,32.814,22.68,48.232,14.6,28.479,35.27,48.539,56.69,69.984,6.63,6.639,13.33,19.384,22.67,22.694,3.45-5.3,9.53-8.339,13.23-13.237,13.11-17.329,30.36-30.866,43.47-48.232l7.56-6.62c6.84-9.415,18.19-32.727,21.73-44.449l1.89-14.186q6.135-7.564,12.28-15.132h1.89c0.92,3.125,1.75,3.9,1.89,8.512,2.42,4.07.67,11.711,4.72,14.186v-0.946q8.04-11.347,16.07-22.7c1.08-4.168-2.8-24.118-2.84-31.209-0.16-35.644-5.39-66.585-5.67-102.139,14.5-9.108,28.14-24.469,39.69-36.883l9.45-.946c-0.36,10.061-5.52,14.4-8.51,21.752-3.41,8.415-3.55,18.529-5.67,28.372-3.45,16.052,3.1,29.187,7.56,37.829,3.08,5.96,4.73,11.826,8.51,17.023,8.53,11.739,31.43,18.419,50.07,14.186l21.74-.946c4.22-1.266,7.63-5.021,11.33-6.62,24.83-10.7,43.08-23.907,63.31-38.775,3.78-2.78,6.68-7.636,10.39-10.4,13.68-10.19,35.46-21.5,56.7-22.7v0.946c-9.13,9.011-15.06,22.708-22.68,33.1-8.46,11.55-20.97,20.731-29.29,32.155-8.79,12.066-17.27,23.389-27.4,34.046-6.87,7.221-32.58,26.95-33.07,36.883-6,9.33,3.47,23.7,5.67,29.317,8.79,22.446,46.94,38.055,81.26,28.372,12.07-3.405,21.23-12.262,33.07-14.186q-0.48,6.147-.95,12.295c-10.69,7.219-20.75,19.708-29.29,29.317-2.27,2.556-4.43,8.056-7.56,9.458h-23.62c-6.8-4.2-19.58-.016-28.35-1.892-17.36-3.715-40.54-3.508-59.52-3.783-6.75-.1-17.7-3.166-21.74-0.946-4.32,1.33-22.37,14.643-22.67,16.078,6.16,4.135,18.36,1.425,24.56,5.674-5.54,3.4-9.79,10.289-15.11,13.24l-12.29,1.892q-21.72,5.2-43.46,10.4c-5.97,2.61-12.44,7.97-17.95,11.35-5.63,3.45-11.63,4.79-17.01,8.51-7,4.84-12.01,13.86-18.9,18.92-6.6,4.84-29.75,22.61-32.12,29.31,8.39,5.4,14.75,14.77,21.73,21.76a345.653,345.653,0,0,0,40.63,34.99c38.32,27.65,78.52,51.98,119.05,77.55,35.02,22.08,70.81,43.99,110.55,61.47,9.03,3.97,17.68,11.09,26.46,15.13,27.27,12.56,65.3,29.12,98.26,34.05q-1.41,5.19-2.83,10.4c-0.95.31-1.89,0.63-2.84,0.95-3.57,2.33-32.7-.3-39.68-0.95-33.09-3.09-69.55-9.64-98.27-18.91-6.75-2.19-12.26-1.61-18.89-3.79-125.73-31.79-187.2-70.44-317.48-178.74-84.97,74.31-162.34,121.68-207.87,142.8-39.26,17.2-81.19,26.31-124.72,38.78-23.69,6.78-51.79,11.04-76.54,17.02l-23.62,1.89c-11.57,2.56-32,4.01-43.46,1.9-1.59-3.53-3.15-6.75-3.78-11.35,6.72-.67,13.24-3.81,18.89-5.68,8.5-2.81,15.4-2.9,23.63-5.67,25.01-8.45,49.93-19.36,70.86-32.16q10.86-4.725,21.73-9.45c20.99-10.92,43.04-21.6,63.31-34.05,26.49-16.27,53.01-32.51,79.37-49.18,11.08-7,21.97-16.95,33.07-23.64,19.91-12,37.5-24.31,55.75-37.83,6.8-5.04,12.21-12.91,18.89-17.97,6.39-4.84,28.8-24.49,31.18-31.21-10.62-6.71-17.51-18.28-27.4-25.53-18.72-13.74-35.95-30.79-58.58-40.67-25.01-10.911-56.17-4.539-70.86-26.479a80.789,80.789,0,0,0,25.51-4.728c-6.76-6.76-17.07-10.063-23.62-17.023-43.71,2.742-87.7,7.275-133.23,7.566q-12.75-14.185-25.51-28.372c-4.78-4.784-10.94-6.767-11.34-16.078-0.99-1.465-.97-3.863-0.95-6.62,7.22,1.1,11.61,5.5,17.01,8.512,5.75,3.2,14.15,5.055,20.79,6.62,27.71,6.528,64.16-6.653,73.7-20.806,2.97-4.4,7.97-17.826,9.45-22.7q-0.48-10.4-.95-20.806c-7.12-4.774-12.9-11.968-18.89-17.969-15.06-15.069-28.81-29.759-41.58-47.286-4.28-5.872-11.67-10.262-16.06-16.078-12.12-16.067-26.57-31.649-35.91-50.123H1621c4.49,2.867,10.81,2.774,16.06,4.728,9.98,3.718,20.59,7.779,29.29,13.241,6.37,4,11.07,10.748,17.01,15.131,22.01,16.234,45.05,33.307,71.81,44.449,7.09,2.954,15.75-.111,24.57,1.892,38.04,8.639,58.84-19.776,66.14-48.232,4.06-15.856-3.36-44.267-7.56-53.907C1835.75,702.236,1832,699.97,1831.7,691.112Z" transform="translate(-1517 -483.213)"/>
</svg>
