<svg xmlns="http://www.w3.org/2000/svg" width="60" height="59.865" viewBox="0 0 970.874 968.684">
  <defs>
    <style>
      .cls-1 {
        fill: #fff;
        fill-rule: evenodd;
      }
    </style>
  </defs>
  <path id="BL_Knight_Icon" class="cls-1" d="M814.708,786.135c8.194,2.523,30.927,5.625,38.525,8.065,79.042,25.376,89.7,112.413,42.109,147.85-0.016-54.765-12.548-73.348-48.38-95.879-9.593-6.032-18.226-15.8-33.15-16.129-2.9,9.149-10.887,13.387-11.647,25.09,5.446,3.171,30.472,25.409,32.254,30.466-39.581,45.894-21.5,97.85-9.856,113.8-9.723,77.922-24.625,203.882-50.172,453.442H772.6c-8.049-74.59-22.736-184.13-49.276-453.442,24.659-46.729,13.934-83.791-10.751-115.592,7.024-4.279,30.591-26.224,34.045-30.466-5.5-9.23-9.851-17.831-16.126-25.09-1.133,1.23-24.292,12.01-32.254,17.025-30.813,19.406-45.854,45.82-45.692,96.775-40.789-31.375-45.109-114.837,36.733-146.058,12.284-5.108,34.737-7.169,43.005-9.857,1.6-6.781,4.4-13.524,10.751-19.713-0.708-21.085.39-106.51,0.9-181.9A160.212,160.212,0,0,1,727.8,571.08c-0.7.57,21.6-42.983,37.629-73.477,2.324-4.422,5.406-13.091,7.568-13.441,2.422,0.412,4.252,6.8,7.931,13.881,11.419,21.991,38.8,74.289,39.153,76.622-3.769,1.706-12.478,6.206-16.127,8.96,0,34.923.131,175.016,0.9,181.9C809.127,771.443,813.566,778.986,814.708,786.135ZM680.319,1323.77q13.884,13.44,27.773,26.88c-6.1-75.16-15.895-182.58-32.253-350.36-68.987,1.92-103.471-70.031-103.486-121.936-0.02-61.863,30.393-119.508,118.717-135.23,0.084-31.779,0-32.585,0-44.8-9.739.1-150.285,17.078-168.435,160.395,0.332-.518-28.86,7.979-71.866,29.093,16.587,81.861,47.812,187.421,148.02,213.741,1.081,7.44,13.418,88.06,15.231,103.94,16.972,6.04,56.857,20.3,56.857,20.3S678.664,1303.91,680.319,1323.77ZM490.381,916.064c11.722-6.153,21.894-11.58,36.255-17.121,6.014,68.395,61.039,137.327,123.221,140.777,0.5,3.18,2.021,16.28,4.14,35.27C580.1,1071.97,527.053,1048.41,490.381,916.064Zm-6.893-84.884c-16.927,5.977-37.677,13.881-37.677,13.881V638.49c0-9.86,11.132-21.469,22.117-21.469H690.707v32.718C670.354,649.162,510.474,683.368,483.488,831.18Zm579.022,0c16.93,5.977,37.68,13.881,37.68,13.881V638.49c0-9.86-11.13-21.469-22.12-21.469H855.292v32.718C875.645,649.162,1035.53,683.368,1062.51,831.18ZM866.258,1323.83q-13.911,13.44-27.824,26.89c6.113-75.18,15.923-182.6,32.311-350.4,69.112,1.91,103.658-70.039,103.674-121.949,0.019-61.869-30.448-119.519-118.932-135.243-0.084-31.782,0-32.587,0-44.807,9.756,0.1,150.553,17.079,168.743,160.41-0.34-.518,28.91,7.98,71.99,29.1-16.62,81.869-47.9,187.433-148.285,213.763-1.083,7.44-13.443,88.06-15.259,103.95-17,6.04-56.96,20.3-56.96,20.3S867.915,1303.97,866.258,1323.83ZM1056.54,916.085c-11.75-6.154-21.94-11.582-36.32-17.123-6.03,68.4-61.151,137.348-123.446,140.788-0.5,3.18-2.025,16.29-4.147,35.28C966.653,1072,1019.8,1048.44,1056.54,916.085Z" transform="translate(-287.564 -484.156)"/>
</svg>
