<svg xmlns="http://www.w3.org/2000/svg" width="60.016" height="60" viewBox="0 0 980.65 980.392">
  <defs>
    <style>
      .cls-1 {
        fill: #fff;
        fill-rule: evenodd;
      }
    </style>
  </defs>
  <path id="BL_Mage_Icon" class="cls-1" d="M3408.53,897.152c-35.54.695-66.29,0.8-69.76-30.915,4.07-5.023,13.42-16.722,14.94-22.937-2.19-1.66-2.01-2.828-4.98-3.989-1.17-.8-1.67-0.771-3.98-1-9.38,11.332-31.33,9.3-39.87,21.939-2.45,3.63-4.68,9.922-5.98,13.962-14.34,44.576,28.48,56.291,54.81,67.814,10.45,4.573,21.18,14.468,32.89,16.953,2.44,0.518,7.03-1.871,10.96-1,11.33,2.516,22.73,4.27,30.9,9.973,15.25,10.641,22.21,39.152,24.91,61.832-6.15,2.77-10.81,6.76-15.94,9.97-16.94,10.6-44.57,20.26-64.78,26.93-11.73,3.87-23.8,2.06-36.87,4.98-68,15.23-123.75-20.12-155.47-51.85-12.97-12.98-24.51-27.323-30.9-46.876-2.49-7.607-1.06-14.388-2.99-22.937-0.99-4.4-2.44-15-1-20.942,13.57-55.606,43.58-74.7,83.72-95.738,6.94-3.638,12.67-5.023,18.93-8.975,17.01-10.731,29.07-25.068,42.86-38.893,16.42-16.468,29.02-25.763,41.86-46.872,8.85-14.563,20.47-44.468,10.96-66.817-6.37-14.964-20.09-26.061-30.9-36.9-5.53-5.553-19.91-26.908-30.89-21.94-38.97,13.156-56.22,37.266-59.8,49.863-2.1,3.207-3.98,37.132-3.98,43.88,0,4.035-.5,13.445,1.99,14.959,32.04,0,47.36-3.325,48.83-37.9,0.44-10.291-5.44-19.684-5.98-30.916,12,1.8,14.28,10.848,19.94,18.948,13.49,19.324,23.26,30.389,22.92,61.831-10.43,5.749-23.72,6.82-35.88,11.967-17,7.2-32.16,18.822-50.83,24.932-16.05,5.254-35.02,1.141-41.85-8.976-4.98-7.369-3.39-16.591-5.98-26.926-4.65-18.519-13.65-76.973-4.99-96.734,6.32-14.4,23.33-18.563,35.88-26.927,30.88-20.575,50.37-61.754,100.66-61.83,3.83,9.769,28.84,21.294,37.87,27.923,16.05,11.785,29.66,26.731,45.84,38.894,6.24,4.691,9.81,13.291,15.95,17.95,15.31,11.635,35,23.127,42.85,41.886,8.22,19.625,2.4,52.289-1.99,71.8V759.53c-4.47,17.8-7.03,38.723-12.96,56.844C3422.18,841.676,3411.09,866.551,3408.53,897.152ZM3130.48,1014.83c8.95,3.72,10.99,16.91,15.94,24.93,5.8,9.39,21.81,33.89,29.9,39.89a211.634,211.634,0,0,0,69.76,33.91c9.42,2.63,18.42.73,28.9,2.99,11.42,2.46,32.66,2.84,44.85,0,16.7-3.89,33.63-9.67,49.83-11.97v1h-1c-8.86,8.79-20.87,15.42-30.89,22.94-5.04,3.77-8.89,10.29-13.95,13.96-23.48,17.04-48.04,33.01-76.74,44.88-10.08,4.16-21.59,3.6-32.89,6.98-17.22,5.15-49.1,15.15-71.76,9.97q-20.415-1-40.86-2a281.919,281.919,0,0,1-38.86-12.96c-9.73-4.03-17.71-4.51-20.93-14.96h0.99c3.52-10.2,18.81-18.68,26.91-24.93,7.06-5.45,20.56-28.43,25.91-36.9a232.319,232.319,0,0,0,23.92-50.86C3124.2,1047.26,3124.93,1028.6,3130.48,1014.83Zm629.85,245.33a12.5,12.5,0,0,1-1,3.99c-31.87,14.95-77.04-1.43-105.64-8.98-19.04-5.03-72.81.47-88.7,4.99-33.63,9.55-65.08,21.88-90.69,39.89-15.29,10.75-27.85,25.94-43.85,35.9-27.66,17.21-60.24,27.7-95.67,36.9q-10.965.99-21.93,1.99c-14.99,3.28-49.09,6.17-65.77,2-13.89-3.48-28.56-7.88-41.86-11.97-16-4.92-31.13-4.82-47.84-9.97q-65.76-24.93-131.55-49.87c-17.44-5.74-34.56-5.36-53.81-9.97-14.46-3.46-30.97-2.29-46.84-5.98-37-8.6-117.63-13.82-121.59-13.96-6.08,1.33-16.77,1.19-22.92,0-0.33-1-.67-2-1-3h1c6.97-22.94,42.23-27.26,65.77-34.9,27.52-8.93,53.95-16.72,81.73-25.93,21.38-7.09,45.54-15.26,72.75-15.96,20.98,32.6,62.71,43.02,104.64,54.85l22.92,3c10.95,2.54,46.41,6.27,60.8,2.99,38.11-8.69,73.49-14.04,101.65-31.92,43.8-27.79,65.96-76.49,110.62-103.71,20.23-12.33,55.65-12.17,75.74,1,3.06,2,5.84,5.96,8.97,7.97,10.35,6.65,23.49,14.74,23.92,30.92-21.67,24.9-33.39-20.79-68.76-12.96-29.49,6.52-61.07,31.44-74.75,53.85-6.91,10.88-23.9,51.94-23.92,55.84,16.82,9.98,51.61,10.19,73.75,3.99,37.26-11.3,111.65-49.74,120.59-51.85,14.17-3.36,59.23.99,63.78,0.99,15.62,3.44,32.48,3.31,45.85,8.98,10.57,4.49,17.86,14.02,26.9,19.94C3695.78,1253.73,3724.27,1259.87,3760.33,1260.16Z" transform="translate(-2779.66 -473.806)"/>
</svg>
