<svg xmlns="http://www.w3.org/2000/svg" width="45.011" height="45.119" viewBox="0 0 285.782 286.469">
  <defs>
    <style>
      .cls-1 {
        fill: none;
        stroke: #fff;
        stroke-linejoin: round;
        stroke-width: 13px;
        fill-rule: evenodd;
      }
    </style>
  </defs>
  <path id="Ellipse_1_copy" data-name="Ellipse 1 copy" class="cls-1" d="M50.684,34V252.407M27.2,6.55H216.43m-187.759,0c12.158,0,22.013,12.909,22.013,28.833s-10.2,28.833-22.358,28.833S6.658,51.307,6.658,35.383,16.513,6.55,28.671,6.55ZM238.184,220.984V35.383c0-15.924-9.855-28.833-22.013-28.833,7.643,0,22.013,7.866,22.013,28.833M91.6,72.676h42.99m-42.3,27.279H194.849M92.293,125.162H194.849M92.293,153.132H194.849M72.784,280.031H257.435c12.157,0,22.013-12.909,22.013-28.833s-9.856-28.833-22.013-28.833H72.611C101.227,224.119,102.661,277.783,72.784,280.031ZM72.7,222.365c12.157,0,22.013,12.909,22.013,28.833S84.855,280.031,72.7,280.031,50.684,267.122,50.684,251.2,60.54,222.365,72.7,222.365Z" transform="translate(-0.156 -0.063)"/>
</svg>
