<svg xmlns="http://www.w3.org/2000/svg" width="45.247" height="36.153" viewBox="0 0 408 326">
  <defs>
    <style>
      .cls-1 {
        fill: #fff;
        fill-rule: evenodd;
      }
    </style>
  </defs>
  <path id="Trade_1" data-name="Trade 1" class="cls-1" d="M2742,323.333c0,22.946-34.02,35.526-60.68,35.526s-60.67-14.374-60.67-35.526h14.64c9.54-17.231,16.84-35.523,25.11-54.333,4.83-10.977,12.12-21.594,16.74-35.526-5.42-3.883-4.05-4.923-8.37-6.269s-19.85,4.77-26.15,7.314c-11.93,4.814-29.07,16.31-47.08,10.449-13.71-4.462-22.91-16.068-36.62-19.853V311.84c19.4,18.984-4.09,34.025,0,48.064,4.96,15.015,20.95,19.388,28.25,22.987-0.23-.449,1.26,22.63,15.69,31.346,3.24,2.343,9.07,2.463,12.56,3.135,9.96,0,8.41,14.628,0,14.628H2464.77c-12.39,0-7.58-14.8-.85-14.8,5.69,0,9.88.957,14.45-1.923,12.04-7.6,11.88-21.472,12.55-32.391,7.23-3.205,24.19-11.751,28.25-24.032,5.33-15.491-18.48-23.084,0-47.019V225.115c-14.55,8.112-34.63,25.248-53.35,21.943-19.91-4.942-35.29-17.926-58.59-18.808a13.641,13.641,0,0,1-7.32,6.269c15.67,31.83,34.81,72.247,42.89,88.814h14.65c0,10.032-9.96,35.526-60.68,35.526s-62.77-22.7-62.77-35.526h18.83c8.91-20.022,17.13-39.925,26.15-60.6,3.94-9.016,9.76-18.076,12.56-28.212-4.28-2.448-6.65-3.46-6.65-10.86s9.36-11.082,11.88-11.082,14.38,1.993,18.83,3.135c12.73,3.269,47.07,14.053,61.72,10.448,12.93-3.18,19.92-11.557,29.3-17.763,5.38-3.568,12.43-4.786,18.83-7.314,0.6-7.164,8.64-16.577,4.18-27.166-1.81-4.306-8.63-7.856-6.28-16.718,1.39-5.215,6.89-8.3,8.37-12.539V128.987c0-5.153-3.14-6.116-3.14-12.538S2533.43,106,2540.09,106a10.336,10.336,0,0,1,10.46,10.449c0,2.758-3.13,8.061-3.13,12.538V144.66c1.45,4.229,7,6.283,8.36,11.494,2.27,8.374-4.86,14.075-7.05,18.28-4.82,10.428,5.32,16.627,6.01,26.649,3.82,2.74,10.63,2.744,14.64,5.225,12.2,7.535,19.92,16.781,37.67,19.852,8.36,1.449,19.86-3.346,26.15-5.224,16.5-4.928,30.24-9.052,50.22-9.4,5.28,0,10.52,7.09,9.41,12.539-0.76,3.711-4.21,8.19-6.55,9.832,5.84,15.226,27.45,66,37.94,89.43C2727.94,323.333,2737.06,323.468,2742,323.333Zm-212.37-102.4v96.128c-1.07,3.19-6.28,7.795-6.28,13.583,0,4.044,1.56,7.838,6.28,13.584v19.852c-4.61,14.471-18.88,22.431-26.15,27.167-4.7,4.137-2.41,12.538,2.09,12.538,14,0,47.95.092,66.95,0,4.42,0,8.92-6.783-3.14-15.673-14.67-13.308-16.3-14.021-21.96-22.987V345.276c2.91-3.752,8.36-7.215,8.36-14.629s-5.77-9.948-7.32-13.583V219.891C2544.36,210.371,2531.01,213.628,2529.63,220.936Zm-130.77,102.4h36.62c-8.73-19.151-22.93-48.743-36.62-75.23v75.23Zm279.32,0v-77.32c-5.46,12.464-29,63.389-35.56,77.32h35.56Zm6.28,0h33.48c-11.59-25.417-21.87-50.4-33.48-77.32v77.32Zm-324.31,0h32.43V248.1C2389.26,256.541,2367.59,303.924,2360.15,323.333Zm-6.27,10.449c3.21,4.069,18.26,13.666,42.93,13.666s32.6-6.81,42.85-13.666h-85.78Zm284.55,0c4.62,5.259,27.17,14.628,42.89,14.628s38.27-11.388,42.9-14.628h-85.79Z" transform="translate(-2334 -106)"/>
</svg>
