<svg xmlns="http://www.w3.org/2000/svg" width="2747" height="747" viewBox="0 0 2747 747">
  <defs>
    <style>
      .cls-1 {
        fill: #fff;
        stroke: #fff;
        stroke-linejoin: round;
        stroke-width: 3px;
        fill-rule: evenodd;
      }
    </style>
  </defs>
  <path id="BACKPACK_LEGENDS" data-name="BACKPACK LEGENDS" class="cls-1" d="M1400.85,1516.6c0-35.62-24.88-71.23-73.19-79.1,37.57-10.17,57.58-40.24,57.58-69.84,0-37-30.25-74.93-94.66-74.93H1100.29c3.9,0.93,31.71,6.48,31.71,57.82v191.02c0,53.19-22.93,58.74-26.35,59.21h191.76C1366.7,1600.78,1400.85,1558.69,1400.85,1516.6Zm-89.29-6.94c0,21.27-13.66,38.39-47.82,38.39H1216.9v-80.48h41.48C1297.41,1467.57,1311.56,1485.14,1311.56,1509.66Zm-15.13-130.9c0,18.5-9.27,38.39-38.05,38.39H1216.9v-73.08h40.5C1287.65,1344.07,1296.43,1363.04,1296.43,1378.76Zm452.32,161.42-108.81-247.45h-73.19l-101.98,245.14c-22.93,55.04-43.91,61.98-48.3,62.91h124.91c-4.39-.47-20.01-5.09-20.01-26.37,0-4.62,4.88-22.2,9.76-37h120.03c7.32,16.65,12.69,33.76,12.69,39.31,0,19.43-15.13,23.59-19.52,24.06h153.21C1793.15,1600.31,1771.2,1591.99,1748.75,1540.18Zm-158.58-152.17,40.5,99.91h-79.53Zm499.65,176.69v-64.76c-23.91,30.53-62.94,48.11-97.59,48.11-48.3,0-87.34-37-87.34-104.07,0-65.22,41.48-100.83,86.86-100.83,47.81,0,77.58,26.83,92.21,56.43v-96.21c-10.73-5.09-35.61-17.57-88.8-17.57-119.05,0-179.56,80.48-179.56,167.43,0,80.94,52.21,154.48,166.88,154.48C2025.41,1607.71,2067.38,1589.21,2089.82,1564.7Zm319.6-24.05-88.32-111.01,74.17-79.55c49.77-51.81,78.07-56.89,81-57.36H2329.89c2.92,0.47,12.68,2.78,12.68,12.49,0,8.33-6.34,22.2-28.3,45.79l-70.26,74.47v-76.32c0-50.41,22.93-55.96,26.35-56.43H2130.32c4.39,0.93,27.33,7.4,27.33,56.43v195.65c0,49.95-23.42,55.5-27.33,55.97h140.04c-4.39-.47-26.35-6.48-26.35-55.97v-84.18l110.27,140.15h124.91C2474.31,1599.85,2451.87,1593.37,2409.42,1540.65Zm376.69-151.71c0-51.34-40.99-96.21-110.27-96.21H2510.43c3.9,0.93,31.71,6.94,31.71,57.82v194.26c0,51.34-22.93,55.5-26.83,55.97h138.08c-5.37-.47-31.23-6.02-31.23-55.97v-57.82c12.2,3.7,26.84,5.55,40.99,5.55C2740.73,1492.54,2786.11,1447.68,2786.11,1388.94Zm-87.83.92c0,30.99-15.61,50.42-45.38,50.42-9.76,0-20.98-2.31-30.74-5.09v-91.12h25.86C2680.72,1344.07,2698.28,1362.11,2698.28,1389.86Zm410.84,150.32-108.81-247.45h-73.19l-101.97,245.14c-22.94,55.04-43.92,61.98-48.31,62.91h124.91c-4.39-.47-20-5.09-20-26.37,0-4.62,4.88-22.2,9.76-37h120.03c7.32,16.65,12.68,33.76,12.68,39.31,0,19.43-15.12,23.59-19.51,24.06h153.21C3153.52,1600.31,3131.57,1591.99,3109.12,1540.18Zm-158.57-152.17,40.49,99.91h-79.53Zm499.64,176.69v-64.76c-23.91,30.53-62.94,48.11-97.58,48.11-48.31,0-87.34-37-87.34-104.07,0-65.22,41.47-100.83,86.85-100.83,47.82,0,77.58,26.83,92.22,56.43v-96.21c-10.74-5.09-35.62-17.57-88.81-17.57-119.05,0-179.55,80.48-179.55,167.43,0,80.94,52.2,154.48,166.87,154.48C3385.79,1607.71,3427.75,1589.21,3450.19,1564.7Zm319.6-24.05-88.31-111.01,74.16-79.55c49.77-51.81,78.07-56.89,81-57.36H3690.26c2.93,0.47,12.69,2.78,12.69,12.49,0,8.33-6.35,22.2-28.3,45.79l-70.27,74.47v-76.32c0-50.41,22.94-55.96,26.35-56.43H3490.7c4.39,0.93,27.32,7.4,27.32,56.43v195.65c0,49.95-23.42,55.5-27.32,55.97h140.03c-4.39-.47-26.35-6.48-26.35-55.97v-84.18l110.28,140.15h124.91C3834.69,1599.85,3812.24,1593.37,3769.79,1540.65ZM1606.76,1928.73c-21.47,34.69-38.06,36.54-80.51,36.54h-63.43V1766.39c0-51.34,23.42-55.97,26.84-56.43H1353.04c4.39,0.93,26.83,7.4,26.83,56.43v188.25c0,57.35-20.49,62.9-23.91,63.36h235.68Zm294.72-9.25c-20.01,32.84-38.06,45.79-78.56,45.79h-62.46v-76.31h52.21c36.6,0,39.04,15.72,39.04,15.72v-83.25c-0.98,2.77-6.35,15.72-40.01,15.72h-51.24V1761.3h56.6c42.45,0,55.63,22.2,62.95,43.94v-95.28H1639.94c4.4,0.46,35.14,6.48,35.14,55.5v191.49c0,54.58-25.38,60.59-29.28,61.05h238.11Zm245.43,6.48v38.39a123,123,0,0,1-30.25,3.7c-49.77,0-89.78-42.55-89.78-104.07,0-64.75,45.38-104.53,100.51-104.53,46.84,0,80.51,23.59,97.59,52.73V1720.6c-8.78-4.16-40.99-17.58-95.15-17.58-129.3,0-192.73,85.57-192.73,168.36,0,77.7,56.11,153.56,167.36,153.56,37.57,0,90.75-4.63,124.42-17.11v-83.72c0-38.85,24.89-43.94,28.79-44.4H2116.66C2120.56,1880.63,2146.91,1886.18,2146.91,1925.96Zm397.67-6.48c-20.01,32.84-38.06,45.79-78.56,45.79h-62.45v-76.31h52.21c36.59,0,39.03,15.72,39.03,15.72v-83.25c-0.98,2.77-6.34,15.72-40.01,15.72h-51.23V1761.3h56.6c42.45,0,55.62,22.2,62.94,43.94v-95.28H2283.05c4.39,0.46,35.13,6.48,35.13,55.5v191.49c0,54.58-25.37,60.59-29.28,61.05h238.11ZM2819.78,1765v101.29l-136.62-156.33H2558.73s48.8,20.81,48.8,58.28v194.72c0,49.49-21.96,54.58-25.38,55.04h123.94c-5.37-.46-31.23-6.94-31.23-54.58V1828.37l85.39,96.2c46.35,52.27,59.53,93.43,59.53,93.43h66.84V1765c0-49.95,22.94-54.58,26.35-55.04H2791.48C2796.36,1710.89,2819.78,1716.44,2819.78,1765Zm467.93,95.74c0-89.26-69.29-150.78-172.73-150.78H2950.06c5.37,0.93,34.15,7.4,34.15,55.5V1955.1c0,56.89-25.37,62.44-29.27,62.9h152.72C3235.99,2018,3287.71,1939.37,3287.71,1860.74Zm-90.76,3.7c0,53.66-29.76,100.83-87.34,100.83h-39.52V1761.3H3094C3165.24,1761.3,3196.95,1807.09,3196.95,1864.44Zm376.69,64.29c0-57.81-48.79-80.94-91.73-98.98-32.69-13.41-60.99-24.51-60.99-45.32,0-14.34,11.71-25.9,41.96-25.9,33.18,0,71.73,21.27,87.83,48.1V1724.3c-19.03-12.03-50.75-20.82-83.93-20.82-68.31,0-124.91,31.92-124.91,96.21,0,41.63,29.77,64.29,61.48,80.48,41.48,20.81,87.83,31.91,87.83,60.13,0,17.57-20.49,28.21-48.79,28.21-37.57,0-75.63-15.26-101.98-64.29v97.59c24.88,13.88,63.43,22.67,101.98,22.67C3513.14,2024.48,3573.64,1993.95,3573.64,1928.73Z" transform="translate(-1096.5 -1281.5)"/>
</svg>
